<svg width="156" height="107" viewBox="0 0 156 107" fill="none" xmlns="http://www.w3.org/2000/svg">
<circle cx="109.5" cy="37.5" r="37.5" fill="#EDA504"/>
<path d="M51.5 75C67.7924 75 81 61.1208 81 44C81 26.8792 67.7924 13 51.5 13C35.2076 13 22 26.8792 22 44C22 61.1208 35.2076 75 51.5 75Z" fill="#C4C4C4"/>
<path d="M29.5 107C45.7924 107 59 96.031 59 82.5C59 68.969 45.7924 58 29.5 58C13.2076 58 0 68.969 0 82.5C0 96.031 13.2076 107 29.5 107Z" fill="#C4C4C4"/>
<path d="M104.252 82.5735C118.971 76.8067 126.068 59.7901 120.103 44.5659C114.138 29.3417 97.3708 21.6749 82.6515 27.4418C67.9323 33.2086 60.8353 50.2252 66.8 65.4494C72.7647 80.6736 89.5323 88.3403 104.252 82.5735Z" fill="#C4C4C4"/>
<path d="M128.5 107C143.688 107 156 95.3594 156 81C156 66.6406 143.688 55 128.5 55C113.312 55 101 66.6406 101 81C101 95.3594 113.312 107 128.5 107Z" fill="#C4C4C4"/>
<path d="M128 58H27V107H128V58Z" fill="#C4C4C4"/>
</svg>
