<svg width="156" height="94" viewBox="0 0 156 94" fill="none" xmlns="http://www.w3.org/2000/svg">
<path d="M51.5 62C67.7924 62 81 48.1208 81 31C81 13.8792 67.7924 0 51.5 0C35.2076 0 22 13.8792 22 31C22 48.1208 35.2076 62 51.5 62Z" fill="#C4C4C4"/>
<path d="M29.5 94C45.7924 94 59 83.031 59 69.5C59 55.969 45.7924 45 29.5 45C13.2076 45 0 55.969 0 69.5C0 83.031 13.2076 94 29.5 94Z" fill="#C4C4C4"/>
<path d="M104.252 69.5735C118.971 63.8067 126.068 46.7901 120.103 31.5659C114.138 16.3417 97.3708 8.67495 82.6515 14.4418C67.9323 20.2086 60.8353 37.2252 66.8 52.4494C72.7647 67.6736 89.5323 75.3403 104.252 69.5735Z" fill="#C4C4C4"/>
<path d="M128.5 94C143.688 94 156 82.3594 156 68C156 53.6406 143.688 42 128.5 42C113.312 42 101 53.6406 101 68C101 82.3594 113.312 94 128.5 94Z" fill="#C4C4C4"/>
<path d="M128 45H27V94H128V45Z" fill="#C4C4C4"/>
</svg>
