<svg width="183" height="147" viewBox="0 0 183 147" fill="none" xmlns="http://www.w3.org/2000/svg">
    <path d="M78.5 62C94.7924 62 108 48.1208 108 31C108 13.8792 94.7924 0 78.5 0C62.2076 0 49 13.8792 49 31C49 48.1208 62.2076 62 78.5 62Z" fill="#555555"/>
    <path d="M56.5 94C72.7924 94 86 83.031 86 69.5C86 55.969 72.7924 45 56.5 45C40.2076 45 27 55.969 27 69.5C27 83.031 40.2076 94 56.5 94Z" fill="#555555"/>
    <path d="M131.252 69.5735C145.971 63.8067 153.068 46.7901 147.103 31.5659C141.138 16.3417 124.371 8.67495 109.652 14.4418C94.9323 20.2086 87.8353 37.2252 93.8 52.4494C99.7647 67.6736 116.532 75.3403 131.252 69.5735Z" fill="#555555"/>
    <path d="M155.5 94C170.688 94 183 82.3594 183 68C183 53.6406 170.688 42 155.5 42C140.312 42 128 53.6406 128 68C128 82.3594 140.312 94 155.5 94Z" fill="url(#paint0_linear_207_444)"/>
    <path d="M155 45H54V94H155V45Z" fill="url(#paint1_linear_207_444)"/>
    <path d="M51.5 76C67.7924 76 81 62.1208 81 45C81 27.8792 67.7924 14 51.5 14C35.2076 14 22 27.8792 22 45C22 62.1208 35.2076 76 51.5 76Z" fill="#C4C4C4"/>
    <path d="M29.5 108C45.7924 108 59 97.031 59 83.5C59 69.969 45.7924 59 29.5 59C13.2076 59 0 69.969 0 83.5C0 97.031 13.2076 108 29.5 108Z" fill="#C4C4C4"/>
    <path d="M104.252 83.5735C118.971 77.8067 126.068 60.7901 120.103 45.5659C114.138 30.3417 97.3708 22.6749 82.6515 28.4418C67.9323 34.2086 60.8353 51.2252 66.8 66.4494C72.7647 81.6736 89.5323 89.3403 104.252 83.5735Z" fill="#C4C4C4"/>
    <path d="M128.5 108C143.688 108 156 96.3594 156 82C156 67.6406 143.688 56 128.5 56C113.312 56 101 67.6406 101 82C101 96.3594 113.312 108 128.5 108Z" fill="#C4C4C4"/>
    <path d="M128 59H27V108H128V59Z" fill="#C4C4C4"/>
    <path d="M60.3735 118.549L59.6644 119.528L42.6333 142.17C41.9535 143.074 40.5315 142.332 40.884 141.257L48.6278 117.651C48.7625 117.24 49.1458 116.962 49.578 116.962H59.5636C60.38 116.962 60.8524 117.888 60.3735 118.549Z" fill="#EDA504"/>
    <path d="M46.4429 97.7107L39.6149 120.304C39.4208 120.946 39.9014 121.593 40.5721 121.593H50.6112C50.9843 121.593 51.3264 121.385 51.4985 121.054L63.2406 98.4612C63.5866 97.7955 63.1035 97 62.3533 97H47.4001C46.9592 97 46.5704 97.2887 46.4429 97.7107Z" fill="#EDA504"/>
    <defs>
        <linearGradient id="paint0_linear_207_444" x1="155.5" y1="42" x2="155.5" y2="94" gradientUnits="userSpaceOnUse">
            <stop offset="0.458333" stop-color="#555555"/>
            <stop offset="0.765625" stop-color="#907436" stop-opacity="0.612903"/>
            <stop offset="1" stop-color="#EDA504" stop-opacity="0"/>
        </linearGradient>
        <linearGradient id="paint1_linear_207_444" x1="104.5" y1="45" x2="104.5" y2="94" gradientUnits="userSpaceOnUse">
            <stop offset="0.401042" stop-color="#555555"/>
            <stop offset="1" stop-color="#EDA504" stop-opacity="0"/>
        </linearGradient>
    </defs>
</svg>
