<svg width="102" height="95" viewBox="0 0 102 95" fill="none" xmlns="http://www.w3.org/2000/svg">
<circle cx="51.5714" cy="47.9524" r="9.04762" stroke="#555555" stroke-width="8"/>
<line x1="40.7988" y1="52.88" x2="13.251" y2="68.7848" stroke="#555555" stroke-width="8" stroke-linecap="round"/>
<line x1="30.7215" y1="58.2583" x2="12.2309" y2="53.3037" stroke="#555555" stroke-width="8" stroke-linecap="round"/>
<line x1="25.6706" y1="76.5818" x2="30.6251" y2="58.0912" stroke="#555555" stroke-width="8" stroke-linecap="round"/>
<line x1="60.5699" y1="40.3627" x2="88.1178" y2="24.4579" stroke="#555555" stroke-width="8" stroke-linecap="round"/>
<line x1="70.6473" y1="34.9844" x2="89.1378" y2="39.9389" stroke="#555555" stroke-width="8" stroke-linecap="round"/>
<line x1="75.6982" y1="16.6609" x2="70.7436" y2="35.1515" stroke="#555555" stroke-width="8" stroke-linecap="round"/>
<line x1="40.3214" y1="42.9991" x2="12.7736" y2="27.0943" stroke="#555555" stroke-width="8" stroke-linecap="round"/>
<line x1="30.6251" y1="36.961" x2="25.6705" y2="18.4704" stroke="#555555" stroke-width="8" stroke-linecap="round"/>
<line x1="12.231" y1="41.7485" x2="30.7216" y2="36.7939" stroke="#555555" stroke-width="8" stroke-linecap="round"/>
<line x1="61.0475" y1="53.8627" x2="88.5953" y2="69.7674" stroke="#555555" stroke-width="8" stroke-linecap="round"/>
<line x1="70.7438" y1="59.9008" x2="75.6984" y2="78.3913" stroke="#555555" stroke-width="8" stroke-linecap="round"/>
<line x1="89.1379" y1="55.1133" x2="70.6473" y2="60.0678" stroke="#555555" stroke-width="8" stroke-linecap="round"/>
<line x1="51.1904" y1="35.8095" x2="51.1904" y2="4" stroke="#555555" stroke-width="8" stroke-linecap="round"/>
<line x1="51.5714" y1="24.3932" x2="65.1075" y2="10.8571" stroke="#555555" stroke-width="8" stroke-linecap="round"/>
<line x1="38.2283" y1="10.8571" x2="51.7643" y2="24.3932" stroke="#555555" stroke-width="8" stroke-linecap="round"/>
<line x1="52.1454" y1="59.1905" x2="52.1454" y2="91" stroke="#555555" stroke-width="8" stroke-linecap="round"/>
<line x1="51.7644" y1="70.6068" x2="38.2284" y2="84.1428" stroke="#555555" stroke-width="8" stroke-linecap="round"/>
<line x1="65.1076" y1="84.1429" x2="51.5715" y2="70.6068" stroke="#555555" stroke-width="8" stroke-linecap="round"/>
</svg>
