<svg width="528.46" height="308.63" version="1.1" viewBox="0 0 139.82 81.659" xmlns="http://www.w3.org/2000/svg">
 <g transform="translate(-22.536 -180.81)">
  <path d="m97.01 182.13a35.841 39.306 0 0 0-33.561 25.564 26.164 28.694 0 0 0-13.427-4.0669 26.164 28.694 0 0 0-26.164 28.694 26.164 28.694 0 0 0 25.864 28.681v0.1416h90.229v-0.22945a21.894 23.548 0 0 0 21.082-23.515 21.894 23.548 0 0 0-21.894-23.548 21.894 23.548 0 0 0-6.7718 1.1658 35.841 39.306 0 0 0-35.357-32.886z" fill-opacity="0" stroke="#82869f" stroke-linejoin="round" stroke-width="2.6458"/>
 </g>
</svg>
